<svg width="512" height="512" viewBox="0 0 512 512" fill="none" xmlns="http://www.w3.org/2000/svg">
<g clip-path="url(#clip0_68_65)">
<path d="M256 492.17C386.433 492.17 492.17 386.433 492.17 256C492.17 125.567 386.433 19.83 256 19.83C125.567 19.83 19.83 125.567 19.83 256C19.83 386.433 125.567 492.17 256 492.17Z" fill="#F9AE2B"/>
<path d="M256 512C114.853 512 0 397.167 0 256C0 114.853 114.853 0 256 0C397.167 0 512 114.853 512 256C512 397.167 397.167 512 256 512ZM256 39.659C136.705 39.659 39.659 136.705 39.659 256C39.659 375.295 136.705 472.341 256 472.341C375.295 472.341 472.341 375.275 472.341 256C472.341 136.705 375.295 39.659 256 39.659Z" fill="#F9AE2B"/>
<path d="M335.299 336.905C331.155 336.905 326.99 335.616 323.421 332.939L244.103 273.45C239.106 269.722 236.171 263.833 236.171 257.586V138.609C236.171 127.663 245.055 118.779 256.001 118.779C266.947 118.779 275.831 127.663 275.831 138.609V247.672L347.218 301.212C355.983 307.776 357.767 320.209 351.184 328.954C347.295 334.188 341.347 336.905 335.299 336.905Z" fill="white"/>
</g>
<defs>
<clipPath id="clip0_68_65">
<rect width="512" height="512" fill="white"/>
</clipPath>
</defs>
</svg>
