<svg id="Layer_1" enable-background="new 0 0 512 512" height="512" viewBox="0 0 512 512" width="512" xmlns="http://www.w3.org/2000/svg"><path d="m202.1 512c-2.4 0-4.8-.5-7-1.6-6.9-3.4-10.4-11.1-8.4-18.5l49.6-184h-134.2c-6.1 0-11.6-3.4-14.3-8.9-2.7-5.4-2.1-11.9 1.5-16.8l207.8-275.8c4.6-6.1 12.9-8.1 19.8-4.8 6.9 3.4 10.4 11.1 8.4 18.5l-49.6 184h134.2c6.1 0 11.6 3.4 14.3 8.9 2.7 5.4 2.1 11.9-1.5 16.8l-207.8 275.8c-3.1 4.1-7.9 6.4-12.8 6.4zm-67.9-236.2h123c5 0 9.7 2.3 12.7 6.3s4 9.1 2.7 13.9l-33.5 124.4 138.7-184.2h-123c-5 0-9.7-2.3-12.7-6.3s-4-9.1-2.7-13.9l33.5-124.3z"/></svg>