<svg id="Capa_1" enable-background="new 0 0 24 24" height="512" viewBox="0 0 24 24" width="512" xmlns="http://www.w3.org/2000/svg"><g id="fire"><path id="Oval" d="m6.81 10.839c.038.112.038.112.081.238.169.496.306.855.475 1.218.338.724.694 1.171.949 1.256.871.29 1.685-.253 1.685-1.051 0-.126-.035-.267-.118-.455-.052-.118-.122-.251-.222-.427-.048-.084-.261-.446-.317-.544-.801-1.396-1.107-2.571-.829-4.238.382-2.292 1.39-3.906 3.039-4.73.59-.295 1.298.052 1.428.698.31 1.548.765 2.761 1.351 3.641.349.523.659.805 1.285 1.223.424.277.673.444.934.634.404.295.776.611 1.156.991 1.659 1.659 2.293 2.937 2.293 4.707 0 4.418-3.582 8-8 8s-8-3.582-8-8c0-1.254.289-2.469.838-3.568 0 0 1.223-2.181 1.972.407zm-.81 3.161c0 3.314 2.686 6 6 6s6-2.686 6-6c0-1.184-.396-1.981-1.707-3.293-.532-.532-.648-.617-1.785-1.375-.827-.551-1.323-1.002-1.84-1.777-.515-.772-.934-1.702-1.261-2.791-.441.578-.749 1.37-.92 2.401-.191 1.149 0 1.885.591 2.915.049.085.263.449.318.547.132.23.23.418.315.609.188.424.289.831.289 1.264 0 2.202-2.186 3.659-4.316 2.949-.689-.23-1.227-.741-1.684-1.475z"/></g></svg>