<svg height="512" viewBox="0 0 40 58" width="512" xmlns="http://www.w3.org/2000/svg"><g id="Page-1" fill="none" fill-rule="evenodd"><g id="001---Shaped-Beard" fill-rule="nonzero" transform="translate(-1)"><path id="Shape" d="m6.008 27s-8.298-14.59 2.671-20.071c0 0 6.364-11.43 21.53-4.93.2502694.1072248.4140838.35159639.418189.62383723.0041052.27224083-.1522664.52144063-.399189.63616277-.7367048.32937109-1.376474.84242607-1.858 1.49-.1296633.17780736-.1665908.40685599-.0993773.61640403.0672136.20954804.2304811.37438319.4393773.44359597 2.567.84 10.29 3.371 10.29 10.191 0 8.22-3 11-3 11z" fill="#a56a43"/><path id="Shape" d="m30.99 58h-19.98c-.3328813.0033085-.6453183-.1602402-.8322901-.4356717-.18697168-.2754315-.22365145-.6261731-.0977099-.9343283.7873841-2.013365 1.324733-4.1157424 1.6-6.26.13-.98.22-1.91.27-2.76h18.1c.05.85.14 1.78.27 2.76.275267 2.1442576.8126159 4.246635 1.6 6.26.1259415.3081552.0892618.6588968-.0977099.9343283-.1869718.2754315-.4994088.4389802-.8322901.4356717z" fill="#fdd7ad"/><path id="Shape" d="m41 32c0 2.7614237-2.2385763 5-5 5v2.9c.0011411 1.5847297-.6802203 3.0931983-1.87 4.14l-7.55 6.6c-1.002263.8765756-2.2884911 1.3597994-3.62 1.36h-3.92c-1.3315089-.0002006-2.617737-.4834244-3.62-1.36l-7.55-6.6c-1.18977972-1.0468017-1.87114111-2.5552703-1.87-4.14v-2.9c-2.37441987.008152-4.42709615-1.6547568-4.91185598-3.9791802s.7321117-4.6691983 2.91185598-5.6108198c.63226759-.2699128 1.31253014-.4093666 2-.41v-.99s0-12.36 8.18-9.61 7.82 5.6 18.82 3.6c1.9214291 1.3932352 3.0414292 3.6369686 3 6.01v.99c.6874699.0006334 1.3677324.1400872 2 .41 1.8195396.8023036 2.9954419 2.6014341 3 4.59z" fill="#fdd7ad"/><path id="Shape" d="m30.32 50.37-3.74 3.27c-1.002263.8765756-2.2884911 1.3597994-3.62 1.36h-3.92c-1.3315089-.0002006-2.617737-.4834244-3.62-1.36l-3.74-3.27c.13-.98.22-1.91.27-2.76h18.1c.05.85.14 1.78.27 2.76z" fill="#f9c795"/><path id="Shape" d="m36.0000014 37-.0000014 2.9c.0011411 1.5847297-.6802203 3.0931983-1.87 4.14l-7.55 6.6c-1.002263.8765756-2.2884911 1.3597994-3.62 1.36h-3.92c-1.3315089-.0002006-2.617737-.4834244-3.62-1.36l-7.55-6.6c-1.18977972-1.0468017-1.87114111-2.5552703-1.87-4.14l-.00000143-2.9h2.00000143c1.10320187.0032948 1.9967052.8967981 2 2v1.5c.0021656.3142421.1499057.6097222.4.8l2 1.5c.1688192.1306729.3765189.2010796.59.2.2669449.0026696.5238754-.1015076.7135801-.2893341.1897048-.1878265.2964332-.4437077.2964199-.7106659.0032948-1.1032019.8967981-1.9967052 2-2h10c1.1011688.0081672 1.9918328.8988312 2 2 0 .3787721.2140024.7250352.5527864.8944272s.744196.132836 1.0472136-.0944272l2-1.5c.2500943-.1902778.3978344-.4857579.4-.8v-1.5c.0032948-1.1032019.8967981-1.9967052 2-2z" fill="#a56a43"/><g fill="#f9c795"><path id="Shape" d="m38 27.41v2.59c0 .5522847-.4477153 1-1 1s-1-.4477153-1-1v-3c.6874699.0006334 1.3677324.1400872 2 .41z"/><path id="Shape" d="m6 27v3c0 .5522847-.44771525 1-1 1s-1-.4477153-1-1v-2.59c.63226759-.2699128 1.31253014-.4093666 2-.41z"/><path id="Shape" d="m24 45h-6c-.5522847 0-1-.4477153-1-1s.4477153-1 1-1h6c.5522847 0 1 .4477153 1 1s-.4477153 1-1 1z"/></g><path id="Shape" d="m22 49h-2c-.5522847 0-1-.4477153-1-1s.4477153-1 1-1h2c.5522847 0 1 .4477153 1 1s-.4477153 1-1 1z" fill="#805333"/><path id="Shape" d="m14 33c-.5522847 0-1-.4477153-1-1v-2c0-.5522847.4477153-1 1-1s1 .4477153 1 1v2c0 .5522847-.4477153 1-1 1z" fill="#3f5c6c"/><path id="Shape" d="m28 33c-.5522847 0-1-.4477153-1-1v-2c0-.5522847.4477153-1 1-1s1 .4477153 1 1v2c0 .5522847-.4477153 1-1 1z" fill="#3f5c6c"/><path id="Shape" d="m22 37h-2c-.5522847 0-1-.4477153-1-1s.4477153-1 1-1h2c.5522847 0 1 .4477153 1 1s-.4477153 1-1 1z" fill="#f9c795"/><g fill="#805333"><path id="Shape" d="m17 27h-6c-.5522847 0-1-.4477153-1-1s.4477153-1 1-1h6c.5522847 0 1 .4477153 1 1s-.4477153 1-1 1z"/><path id="Shape" d="m31 27h-6c-.5522847 0-1-.4477153-1-1s.4477153-1 1-1h6c.5522847 0 1 .4477153 1 1s-.4477153 1-1 1z"/></g></g></g></svg>